<svg width="680" height="220" viewBox="0 0 680 220" fill="none" xmlns="http://www.w3.org/2000/svg">
<mask id="mask0" mask-type="alpha" maskUnits="userSpaceOnUse" x="0" y="0" width="680" height="220">
<rect width="680" height="220" rx="15" fill="#C4C4C4"/>
</mask>
<g mask="url(#mask0)">
<rect width="680" height="220" rx="15" fill="#343334"/>
<circle cx="511.415" cy="63.5529" r="76.5529" fill="url(#paint0_radial)"/>
<circle cx="506.69" cy="151.447" r="76.5529" fill="url(#paint1_radial)"/>
<circle cx="599.31" cy="116.479" r="76.5529" fill="url(#paint2_radial)"/>
<path fill-rule="evenodd" clip-rule="evenodd" d="M117.697 379V189.478H170.061L177 124.167H117.697L117.786 91.4789C117.786 74.445 119.406 65.3178 143.894 65.3178H176.629V0H124.258C61.3526 0 39.2114 31.6826 39.2114 84.9627V124.175H0V189.485H39.2114V379H117.697Z" fill="url(#paint3_radial)"/>
<path fill-rule="evenodd" clip-rule="evenodd" d="M438.531 184.833C438.531 184.833 439.83 184.692 440.496 183.996C441.105 183.358 441.084 182.155 441.084 182.155C441.084 182.155 441.003 176.534 443.683 175.704C446.324 174.888 449.715 181.139 453.314 183.543C456.033 185.361 458.097 184.963 458.097 184.963L467.714 184.833C467.714 184.833 472.743 184.531 470.359 180.68C470.161 180.364 468.968 177.83 463.21 172.625C457.177 167.175 457.987 168.057 465.249 158.63C469.672 152.889 471.44 149.384 470.887 147.886C470.362 146.452 467.108 146.833 467.108 146.833L456.283 146.898C456.283 146.898 455.48 146.792 454.885 147.138C454.304 147.478 453.927 148.27 453.927 148.27C453.927 148.27 452.216 152.711 449.93 156.49C445.109 164.459 443.183 164.881 442.394 164.387C440.559 163.232 441.017 159.751 441.017 157.279C441.017 149.552 442.222 146.332 438.675 145.499C437.499 145.221 436.633 145.039 433.622 145.009C429.759 144.971 426.491 145.022 424.639 145.904C423.406 146.49 422.455 147.8 423.036 147.875C423.751 147.968 425.371 148.301 426.23 149.439C427.34 150.91 427.301 154.209 427.301 154.209C427.301 154.209 427.938 163.304 425.811 164.432C424.353 165.207 422.353 163.626 418.053 156.394C415.852 152.69 414.19 148.596 414.19 148.596C414.19 148.596 413.87 147.831 413.296 147.419C412.602 146.922 411.634 146.768 411.634 146.768L401.347 146.833C401.347 146.833 399.801 146.874 399.234 147.529C398.731 148.109 399.196 149.312 399.196 149.312C399.196 149.312 407.249 167.662 416.37 176.911C424.734 185.388 434.228 184.833 434.228 184.833H438.531Z" fill="white"/>
<path fill-rule="evenodd" clip-rule="evenodd" d="M247.209 121.134L247.478 125.545L242.998 125.005C226.691 122.934 212.446 115.911 200.35 104.117L194.437 98.2643L192.913 102.586C189.688 112.22 191.749 122.394 198.468 129.237C202.052 133.018 201.246 133.559 195.064 131.308C192.913 130.587 191.032 130.047 190.853 130.317C190.225 130.948 192.376 139.141 194.078 142.382C196.408 146.884 201.156 151.296 206.353 153.907L210.743 155.978L205.547 156.068C200.529 156.068 200.35 156.158 200.888 158.049C202.679 163.901 209.758 170.113 217.642 172.815L223.197 174.705L218.359 177.586C211.191 181.728 202.769 184.069 194.347 184.249C190.315 184.339 187 184.699 187 184.969C187 185.87 197.931 190.912 204.292 192.893C223.376 198.745 246.044 196.224 263.068 186.23C275.163 179.117 287.259 164.981 292.903 151.296C295.95 144.003 298.996 130.677 298.996 124.285C298.996 120.143 299.265 119.603 304.282 114.651C307.239 111.77 310.016 108.619 310.554 107.718C311.45 106.007 311.36 106.007 306.791 107.538C299.175 110.239 298.1 109.879 301.863 105.827C304.641 102.946 307.956 97.7241 307.956 96.1935C307.956 95.9234 306.612 96.3736 305.089 97.1839C303.476 98.0843 299.892 99.4348 297.204 100.245L292.366 101.776L287.976 98.8045C285.557 97.1839 282.152 95.3832 280.36 94.8429C275.79 93.5824 268.802 93.7625 264.68 95.2031C253.481 99.2547 246.403 109.699 247.209 121.134Z" fill="url(#paint4_radial)"/>
<path fill-rule="evenodd" clip-rule="evenodd" d="M353.114 72.3369L374.979 88.3326C377.474 89.6957 379.275 88.99 379.896 86.0388L388.796 44.5093C389.708 40.8918 387.404 39.2511 385.017 40.3242L332.755 60.2784C329.187 61.6952 329.208 63.6659 332.105 64.544L345.516 68.6889L376.565 49.2925C378.031 48.4124 379.376 48.8856 378.272 49.8559" fill="url(#paint5_radial)"/>
</g>
<defs>
<radialGradient id="paint0_radial" cx="0" cy="0" r="1" gradientUnits="userSpaceOnUse" gradientTransform="translate(417.638 172.428) rotate(-48.6451) scale(257.794 971.627)">
<stop stop-color="#EAF84E"/>
<stop offset="0.5" stop-color="#F5BD51"/>
<stop offset="0.710213" stop-color="#DD6A5A"/>
<stop offset="0.959244" stop-color="#EB2B59"/>
</radialGradient>
<radialGradient id="paint1_radial" cx="0" cy="0" r="1" gradientUnits="userSpaceOnUse" gradientTransform="translate(412.913 260.322) rotate(-48.6451) scale(257.794 971.627)">
<stop stop-color="#4EA6F8"/>
<stop offset="0.223958" stop-color="#5ADDC5"/>
<stop offset="0.5" stop-color="#519DF5"/>
<stop offset="0.959244" stop-color="#2A1A8F"/>
</radialGradient>
<radialGradient id="paint2_radial" cx="0" cy="0" r="1" gradientUnits="userSpaceOnUse" gradientTransform="translate(592.498 67.7632) rotate(64.0598) scale(127.694 377.842)">
<stop stop-color="#32E38D"/>
<stop offset="0.5" stop-color="#1E9FAA"/>
<stop offset="0.84375" stop-color="#178AAA"/>
<stop offset="0.989583" stop-color="#2C8C84"/>
</radialGradient>
<radialGradient id="paint3_radial" cx="0" cy="0" r="1" gradientUnits="userSpaceOnUse" gradientTransform="translate(-19.9125 459.011) rotate(-67.6535) scale(517.908 1384.04)">
<stop stop-color="#4EA6F8"/>
<stop offset="0.223958" stop-color="#5ADDC5"/>
<stop offset="0.5" stop-color="#519DF5"/>
<stop offset="0.959244" stop-color="#2A1A8F"/>
</radialGradient>
<radialGradient id="paint4_radial" cx="0" cy="0" r="1" gradientUnits="userSpaceOnUse" gradientTransform="translate(173.05 217.533) rotate(-43.0613) scale(188.811 715.788)">
<stop stop-color="#EAF84E"/>
<stop offset="0.5" stop-color="#F5BD51"/>
<stop offset="0.710213" stop-color="#DD6A5A"/>
<stop offset="0.959244" stop-color="#EB2B59"/>
</radialGradient>
<radialGradient id="paint5_radial" cx="0" cy="0" r="1" gradientUnits="userSpaceOnUse" gradientTransform="translate(362.911 60.6066) rotate(93.0084) scale(36.8483 100.098)">
<stop offset="0.03125" stop-color="#99FFCD"/>
<stop offset="0.53125" stop-color="#3DD2A1"/>
<stop offset="0.989483" stop-color="#04565C"/>
</radialGradient>
</defs>
</svg>
