<svg width="680" height="220" viewBox="0 0 680 220" fill="none" xmlns="http://www.w3.org/2000/svg">
<mask id="mask0" mask-type="alpha" maskUnits="userSpaceOnUse" x="0" y="0" width="680" height="220">
<rect width="680" height="220" rx="15" fill="#C4C4C4"/>
</mask>
<g mask="url(#mask0)">
<rect width="163.587" height="163.587" rx="15" transform="matrix(0.866025 -0.5 0.866025 0.5 -191 161.79)" fill="url(#paint0_radial)"/>
<rect width="163.587" height="163.587" rx="15" transform="matrix(0.866025 -0.5 0.866025 0.5 -30.0105 254.737)" fill="url(#paint1_radial)"/>
<rect width="163.587" height="163.587" rx="15" transform="matrix(0.866025 -0.5 0.866025 0.5 -23.5698 65.1245)" fill="url(#paint2_radial)"/>
<rect width="163.587" height="163.587" rx="15" transform="matrix(0.866025 -0.5 0.866025 0.5 137.419 158.072)" fill="url(#paint3_radial)"/>
<rect width="163.587" height="163.587" rx="15" transform="matrix(0.866025 -0.5 0.866025 0.5 298.41 251.02)" fill="white"/>
<rect width="163.587" height="163.587" rx="15" transform="matrix(0.866025 -0.5 0.866025 0.5 143.859 -31.5405)" fill="url(#paint4_radial)"/>
<rect width="163.587" height="163.587" rx="15" transform="matrix(0.866025 -0.5 0.866025 0.5 304.849 61.4067)" fill="url(#paint5_radial)"/>
<rect width="163.587" height="163.587" rx="15" transform="matrix(0.866025 -0.5 0.866025 0.5 465.838 154.354)" fill="url(#paint6_radial)"/>
<rect width="163.587" height="163.587" rx="15" transform="matrix(0.866025 -0.5 0.866025 0.5 472.278 -35.2588)" fill="url(#paint7_radial)"/>
<rect width="163.587" height="163.587" rx="15" transform="matrix(0.866025 -0.5 0.866025 0.5 633.268 57.689)" fill="url(#paint8_radial)"/>
</g>
<defs>
<radialGradient id="paint0_radial" cx="0" cy="0" r="1" gradientUnits="userSpaceOnUse" gradientTransform="translate(74.5155 29.7432) rotate(64.0598) scale(136.436 403.71)">
<stop stop-color="#32E38D"/>
<stop offset="0.5" stop-color="#1E9FAA"/>
<stop offset="0.84375" stop-color="#178AAA"/>
<stop offset="0.989583" stop-color="#2C8C84"/>
</radialGradient>
<radialGradient id="paint1_radial" cx="0" cy="0" r="1" gradientUnits="userSpaceOnUse" gradientTransform="translate(-18.4036 198.123) rotate(-48.6451) scale(275.443 1038.15)">
<stop stop-color="#EAF84E"/>
<stop offset="0.5" stop-color="#F5BD51"/>
<stop offset="0.710213" stop-color="#DD6A5A"/>
<stop offset="0.959244" stop-color="#EB2B59"/>
</radialGradient>
<radialGradient id="paint2_radial" cx="0" cy="0" r="1" gradientUnits="userSpaceOnUse" gradientTransform="translate(-18.4036 198.123) rotate(-48.6451) scale(275.443 1038.15)">
<stop stop-color="#EAF84E"/>
<stop offset="0.5" stop-color="#F5BD51"/>
<stop offset="0.710213" stop-color="#DD6A5A"/>
<stop offset="0.959244" stop-color="#EB2B59"/>
</radialGradient>
<radialGradient id="paint3_radial" cx="0" cy="0" r="1" gradientUnits="userSpaceOnUse" gradientTransform="translate(-18.4036 198.123) rotate(-48.6451) scale(275.443 1038.15)">
<stop stop-color="#4EA6F8"/>
<stop offset="0.223958" stop-color="#5ADDC5"/>
<stop offset="0.5" stop-color="#519DF5"/>
<stop offset="0.959244" stop-color="#2A1A8F"/>
</radialGradient>
<radialGradient id="paint4_radial" cx="0" cy="0" r="1" gradientUnits="userSpaceOnUse" gradientTransform="translate(-18.4036 198.123) rotate(-48.6451) scale(275.443 1038.15)">
<stop stop-color="#4EA6F8"/>
<stop offset="0.223958" stop-color="#5ADDC5"/>
<stop offset="0.5" stop-color="#519DF5"/>
<stop offset="0.959244" stop-color="#2A1A8F"/>
</radialGradient>
<radialGradient id="paint5_radial" cx="0" cy="0" r="1" gradientUnits="userSpaceOnUse" gradientTransform="translate(74.5155 29.7432) rotate(64.0598) scale(136.436 403.71)">
<stop stop-color="#32E38D"/>
<stop offset="0.5" stop-color="#1E9FAA"/>
<stop offset="0.84375" stop-color="#178AAA"/>
<stop offset="0.989583" stop-color="#2C8C84"/>
</radialGradient>
<radialGradient id="paint6_radial" cx="0" cy="0" r="1" gradientUnits="userSpaceOnUse" gradientTransform="translate(-18.4036 198.123) rotate(-48.6451) scale(275.443 1038.15)">
<stop stop-color="#EAF84E"/>
<stop offset="0.5" stop-color="#F5BD51"/>
<stop offset="0.710213" stop-color="#DD6A5A"/>
<stop offset="0.959244" stop-color="#EB2B59"/>
</radialGradient>
<radialGradient id="paint7_radial" cx="0" cy="0" r="1" gradientUnits="userSpaceOnUse" gradientTransform="translate(-18.4036 198.123) rotate(-48.6451) scale(275.443 1038.15)">
<stop stop-color="#EAF84E"/>
<stop offset="0.5" stop-color="#F5BD51"/>
<stop offset="0.710213" stop-color="#DD6A5A"/>
<stop offset="0.959244" stop-color="#EB2B59"/>
</radialGradient>
<radialGradient id="paint8_radial" cx="0" cy="0" r="1" gradientUnits="userSpaceOnUse" gradientTransform="translate(-18.4036 198.123) rotate(-48.6451) scale(275.443 1038.15)">
<stop stop-color="#4EA6F8"/>
<stop offset="0.223958" stop-color="#5ADDC5"/>
<stop offset="0.5" stop-color="#519DF5"/>
<stop offset="0.959244" stop-color="#2A1A8F"/>
</radialGradient>
</defs>
</svg>
